<?xml version="1.0" encoding="UTF-8"?> <svg xmlns="http://www.w3.org/2000/svg" width="230" height="288" viewBox="0 0 230 288" fill="none"> <rect width="230" height="288" fill="#FF0000"></rect> <path d="M68.1749 157.825C68.1749 159.135 69.2463 160.206 70.5558 160.206H71.5479C71.9249 162.547 72.8376 164.75 74.2264 166.655L73.532 167.349C72.5995 168.282 72.5995 169.79 73.532 170.722C74.4645 171.655 75.9725 171.655 76.905 170.722L77.5994 170.028C79.5042 171.417 81.7264 172.329 84.0478 172.706V173.698C84.0478 175.008 85.1193 176.079 86.4288 176.079C87.7383 176.079 88.8097 175.008 88.8097 173.698V172.706C91.151 172.329 93.3534 171.417 95.2581 170.028L95.9526 170.722C96.8851 171.655 98.393 171.655 99.3256 170.722C100.258 169.79 100.258 168.282 99.3256 167.349L98.6311 166.655C100.02 164.75 100.933 162.528 101.31 160.206H102.302C103.611 160.206 104.683 159.135 104.683 157.825C104.683 156.516 103.611 155.444 102.302 155.444H101.31C100.933 153.103 100.02 150.901 98.6311 148.996L99.3256 148.301C100.258 147.369 100.258 145.861 99.3256 144.928C98.393 143.996 96.8851 143.996 95.9526 144.928L95.2581 145.623C93.3534 144.234 91.1312 143.321 88.8097 142.944V141.952C88.8097 140.643 87.7383 139.571 86.4288 139.571C85.1193 139.571 84.0478 140.643 84.0478 141.952V142.944C81.7066 143.321 79.5042 144.234 77.5994 145.623L76.905 144.928C75.9725 143.996 74.4645 143.996 73.532 144.928C72.5995 145.861 72.5995 147.369 73.532 148.301L74.2264 148.996C72.8376 150.901 71.9249 153.123 71.5479 155.444H70.5558C69.2463 155.444 68.1749 156.516 68.1749 157.825ZM80.0796 157.825C80.0796 154.313 82.9169 151.476 86.4288 151.476C89.9407 151.476 92.778 154.313 92.778 157.825C92.778 161.337 89.9407 164.174 86.4288 164.174C82.9169 164.174 80.0796 161.337 80.0796 157.825Z" fill="white"></path> <path d="M128.492 157.825C128.492 159.135 129.564 160.206 130.873 160.206H131.865C132.242 162.547 133.155 164.75 134.544 166.655L133.849 167.349C132.917 168.282 132.917 169.79 133.849 170.722C134.782 171.655 136.29 171.655 137.222 170.722L137.917 170.028C139.821 171.417 142.044 172.329 144.365 172.706V173.698C144.365 175.008 145.437 176.079 146.746 176.079C148.056 176.079 149.127 175.008 149.127 173.698V172.706C151.468 172.329 153.671 171.417 155.575 170.028L156.27 170.722C157.202 171.655 158.71 171.655 159.643 170.722C160.575 169.79 160.575 168.282 159.643 167.349L158.948 166.655C160.337 164.75 161.25 162.528 161.627 160.206H162.619C163.929 160.206 165 159.135 165 157.825C165 156.516 163.929 155.444 162.619 155.444H161.627C161.25 153.103 160.337 150.901 158.948 148.996L159.643 148.301C160.575 147.369 160.575 145.861 159.643 144.928C158.71 143.996 157.202 143.996 156.27 144.928L155.575 145.623C153.671 144.234 151.448 143.321 149.127 142.944V141.952C149.127 140.643 148.056 139.571 146.746 139.571C145.437 139.571 144.365 140.643 144.365 141.952V142.944C142.024 143.321 139.821 144.234 137.917 145.623L137.222 144.928C136.29 143.996 134.782 143.996 133.849 144.928C132.917 145.861 132.917 147.369 133.849 148.301L134.544 148.996C133.155 150.901 132.242 153.123 131.865 155.444H130.873C129.564 155.444 128.492 156.516 128.492 157.825ZM140.397 157.825C140.397 154.313 143.234 151.476 146.746 151.476C150.258 151.476 153.095 154.313 153.095 157.825C153.095 161.337 150.258 164.174 146.746 164.174C143.234 164.174 140.397 161.337 140.397 157.825Z" fill="white"></path> <path d="M78.0955 124.214C77.3613 123.123 77.6788 121.635 78.7701 120.921C79.1669 120.663 79.6232 120.524 80.0796 120.524H108.651C112.183 120.524 114.861 121.635 116.627 123.817C116.786 124.016 116.925 124.214 117.064 124.413C106.548 127.091 92.3811 128.659 81.5478 129.433L78.0955 124.214Z" fill="white"></path> <path d="M67.3812 120.524H70.5558C71.8653 120.524 72.9368 121.595 72.9368 122.905V132.19C81.151 131.794 93.0954 130.96 102.401 129.611C115.516 127.726 124.583 125.226 129.464 122.19L126.23 115.762H121.429C120.119 115.782 119.028 114.75 118.968 113.421C118.949 112.111 119.98 111.02 121.31 111C121.329 111 121.349 111 121.349 111H127.699C128.591 111 129.425 111.516 129.822 112.31L134.385 121.436C134.425 121.536 134.464 121.615 134.504 121.714C134.683 121.774 134.861 121.833 135.06 121.913L138.214 114.79C138.75 113.599 140.139 113.044 141.349 113.579L159.603 121.516C160.813 122.032 161.349 123.44 160.833 124.631L158.452 130.186C158.373 130.345 158.294 130.504 158.194 130.663C159.306 131.099 160.258 131.476 161.012 131.774C161.905 132.131 162.5 132.984 162.5 133.956L162.599 140.385C162.619 141.337 162.063 142.21 161.19 142.587L159.246 143.46C151.31 136.555 139.286 137.389 132.361 145.325C130.079 147.944 128.552 151.159 127.956 154.591H127.937C127.699 143.202 129.782 135.425 134.246 130.802C137.222 127.726 141.329 126.139 146.409 126.079C149.008 127.071 151.587 128.063 153.889 128.976C153.909 128.758 153.968 128.52 154.067 128.321L155.516 124.948L141.607 118.897L139.544 123.52C140.198 123.758 140.853 123.996 141.508 124.234C137.956 125.008 134.96 126.655 132.56 129.135C128.968 132.825 126.786 138.242 125.952 145.524H100.814C97.2621 141.417 92.0637 138.778 86.4288 138.778C83.909 138.778 81.409 139.274 79.0677 140.246L69.6233 136.218C68.7503 135.841 68.1749 134.988 68.1749 134.036V125.286H67.4606C66.1511 125.306 65.0598 124.274 65.0003 122.944C64.9804 121.635 66.0122 120.544 67.3415 120.524C67.3415 120.524 67.3614 120.524 67.3812 120.524Z" fill="white"></path> <path d="M125.734 147.905C125.595 149.809 125.536 151.813 125.575 153.936C125.575 154.333 125.278 154.651 124.881 154.651C124.881 154.651 105.337 154.849 105.298 154.651C104.822 152.25 103.909 149.968 102.599 147.905H125.734Z" fill="white"></path> </svg> 