<?xml version="1.0" encoding="UTF-8"?> <svg xmlns="http://www.w3.org/2000/svg" width="140" height="140" viewBox="0 0 140 140" fill="none"> <circle cx="70" cy="70" r="70" fill="#FF0505"></circle> <path d="M23.1749 83.8252C23.1749 85.1347 24.2463 86.2062 25.5558 86.2062H26.5479C26.9249 88.5474 27.8376 90.7498 29.2264 92.6545L28.532 93.349C27.5995 94.2815 27.5995 95.7895 28.532 96.722C29.4645 97.6545 30.9725 97.6545 31.905 96.722L32.5994 96.0276C34.5042 97.4164 36.7264 98.3291 39.0478 98.7061V99.6982C39.0478 101.008 40.1193 102.079 41.4288 102.079C42.7383 102.079 43.8097 101.008 43.8097 99.6982V98.7061C46.151 98.3291 48.3534 97.4164 50.2581 96.0276L50.9526 96.722C51.8851 97.6545 53.393 97.6545 54.3256 96.722C55.2581 95.7895 55.2581 94.2815 54.3256 93.349L53.6311 92.6545C55.02 90.7498 55.9327 88.5276 56.3097 86.2062H57.3018C58.6113 86.2062 59.6827 85.1347 59.6827 83.8252C59.6827 82.5157 58.6113 81.4443 57.3018 81.4443H56.3097C55.9327 79.103 55.02 76.9006 53.6311 74.9959L54.3256 74.3014C55.2581 73.3689 55.2581 71.861 54.3256 70.9284C53.393 69.9959 51.8851 69.9959 50.9526 70.9284L50.2581 71.6229C48.3534 70.234 46.1312 69.3213 43.8097 68.9443V67.9522C43.8097 66.6427 42.7383 65.5713 41.4288 65.5713C40.1193 65.5713 39.0478 66.6427 39.0478 67.9522V68.9443C36.7066 69.3213 34.5042 70.234 32.5994 71.6229L31.905 70.9284C30.9725 69.9959 29.4645 69.9959 28.532 70.9284C27.5995 71.861 27.5995 73.3689 28.532 74.3014L29.2264 74.9959C27.8376 76.9006 26.9249 79.1228 26.5479 81.4443H25.5558C24.2463 81.4443 23.1749 82.5157 23.1749 83.8252ZM35.0796 83.8252C35.0796 80.3133 37.9169 77.476 41.4288 77.476C44.9407 77.476 47.778 80.3133 47.778 83.8252C47.778 87.3371 44.9407 90.1744 41.4288 90.1744C37.9169 90.1744 35.0796 87.3371 35.0796 83.8252Z" fill="white"></path> <path d="M83.4922 83.8252C83.4922 85.1347 84.5636 86.2062 85.8731 86.2062H86.8652C87.2421 88.5474 88.1548 90.7498 89.5437 92.6545L88.8493 93.349C87.9167 94.2815 87.9167 95.7895 88.8493 96.722C89.7818 97.6545 91.2898 97.6545 92.2223 96.722L92.9167 96.0276C94.8215 97.4164 97.0437 98.3291 99.3651 98.7061V99.6982C99.3651 101.008 100.437 102.079 101.746 102.079C103.056 102.079 104.127 101.008 104.127 99.6982V98.7061C106.468 98.3291 108.671 97.4164 110.575 96.0276L111.27 96.722C112.202 97.6545 113.71 97.6545 114.643 96.722C115.575 95.7895 115.575 94.2815 114.643 93.349L113.948 92.6545C115.337 90.7498 116.25 88.5276 116.627 86.2062H117.619C118.929 86.2062 120 85.1347 120 83.8252C120 82.5157 118.929 81.4443 117.619 81.4443H116.627C116.25 79.103 115.337 76.9006 113.948 74.9959L114.643 74.3014C115.575 73.3689 115.575 71.861 114.643 70.9284C113.71 69.9959 112.202 69.9959 111.27 70.9284L110.575 71.6229C108.671 70.234 106.448 69.3213 104.127 68.9443V67.9522C104.127 66.6427 103.056 65.5713 101.746 65.5713C100.437 65.5713 99.3651 66.6427 99.3651 67.9522V68.9443C97.0239 69.3213 94.8215 70.234 92.9167 71.6229L92.2223 70.9284C91.2898 69.9959 89.7818 69.9959 88.8493 70.9284C87.9167 71.861 87.9167 73.3689 88.8493 74.3014L89.5437 74.9959C88.1548 76.9006 87.2421 79.1228 86.8652 81.4443H85.8731C84.5636 81.4443 83.4922 82.5157 83.4922 83.8252ZM95.3969 83.8252C95.3969 80.3133 98.2342 77.476 101.746 77.476C105.258 77.476 108.095 80.3133 108.095 83.8252C108.095 87.3371 105.258 90.1744 101.746 90.1744C98.2342 90.1744 95.3969 87.3371 95.3969 83.8252Z" fill="white"></path> <path d="M33.0955 50.2143C32.3614 49.123 32.6788 47.6349 33.7701 46.9206C34.1669 46.6627 34.6233 46.5238 35.0796 46.5238H63.651C67.1827 46.5238 69.8613 47.6349 71.6271 49.8174C71.7859 50.0159 71.9247 50.2143 72.0636 50.4127C61.5478 53.0912 47.3812 54.6587 36.5479 55.4325L33.0955 50.2143Z" fill="white"></path> <path d="M22.3812 46.5238H25.5558C26.8653 46.5238 27.9368 47.5952 27.9368 48.9047V58.1904C36.151 57.7936 48.0954 56.9603 57.401 55.6111C70.516 53.7261 79.5834 51.2261 84.4644 48.1904L81.2303 41.7619H76.4287C75.1192 41.7817 74.0279 40.75 73.9684 39.4206C73.9485 38.1111 74.9803 37.0198 76.3096 37C76.3295 37 76.3493 37 76.3493 37H82.6985C83.5914 37 84.4247 37.5159 84.8215 38.3095L89.385 47.4365C89.4247 47.5357 89.4644 47.6151 89.504 47.7143C89.6826 47.7738 89.8612 47.8333 90.0596 47.9127L93.2144 40.7897C93.7501 39.5992 95.139 39.0436 96.3493 39.5794L114.603 47.5158C115.813 48.0317 116.349 49.4404 115.833 50.6309L113.452 56.1865C113.373 56.3452 113.294 56.5039 113.194 56.6626C114.306 57.0992 115.258 57.4761 116.012 57.7738C116.905 58.1309 117.5 58.9841 117.5 59.9563L117.599 66.3848C117.619 67.3372 117.063 68.2102 116.19 68.5872L114.246 69.4602C106.31 62.5555 94.2858 63.3888 87.3612 71.3253C85.0795 73.9443 83.5517 77.1586 82.9564 80.5912H82.9366C82.6985 69.2023 84.7818 61.4245 89.2461 56.8015C92.2223 53.7261 96.3294 52.1388 101.409 52.0793C104.008 53.0714 106.587 54.0634 108.889 54.9761C108.909 54.7579 108.968 54.5198 109.067 54.3214L110.516 50.9484L96.6072 44.8968L94.5437 49.5198C95.1985 49.7579 95.8532 49.996 96.508 50.2341C92.9564 51.0079 89.9604 52.6547 87.5596 55.1349C83.9684 58.8253 81.7858 64.242 80.9525 71.5237H55.8137C52.2621 67.4166 47.0637 64.7777 41.4288 64.7777C38.909 64.7777 36.409 65.2737 34.0677 66.2459L24.6233 62.2182C23.7503 61.8412 23.1749 60.988 23.1749 60.0357V51.2857H22.4606C21.1511 51.3055 20.0598 50.2738 20.0003 48.9444C19.9804 47.6349 21.0122 46.5436 22.3415 46.5238C22.3415 46.5238 22.3614 46.5238 22.3812 46.5238Z" fill="white"></path> <path d="M80.7342 73.9047C80.5953 75.8094 80.5358 77.8134 80.5755 79.9364C80.5755 80.3332 80.2779 80.6507 79.881 80.6507C79.881 80.6507 60.3375 80.8491 60.2978 80.6507C59.8216 78.2499 58.9089 75.9681 57.5994 73.9047H80.7342Z" fill="white"></path> </svg> 