<?xml version="1.0" encoding="UTF-8"?> <svg xmlns="http://www.w3.org/2000/svg" width="140" height="140" viewBox="0 0 140 140" fill="none"> <circle cx="70" cy="70" r="70" fill="#FF0505"></circle> <path d="M62.0875 62.7594C61.1033 61.1816 60.3222 59.51 59.7442 57.7916V83.2242L67.9301 69.18C65.618 67.4304 63.6341 65.2589 62.0875 62.7594Z" fill="white"></path> <path d="M82.3023 31C71.7106 31 63.1029 39.6077 63.1029 50.1994C63.1029 51.6835 63.2747 53.1363 63.6028 54.5423C63.6028 54.5735 63.6184 54.6048 63.6184 54.636C63.6497 54.7922 63.6965 54.9485 63.7278 55.089C63.7434 55.1203 63.7434 55.1515 63.759 55.1828C63.9309 55.8389 64.1496 56.495 64.3995 57.1355C64.4151 57.1668 64.4151 57.198 64.4308 57.2136C64.4933 57.3542 64.5401 57.4948 64.6026 57.6354C64.6182 57.6823 64.6339 57.7135 64.6495 57.7604C64.712 57.901 64.7745 58.026 64.8213 58.1666C64.8369 58.1978 64.8526 58.2291 64.8682 58.2759C65.0713 58.7133 65.29 59.1508 65.5243 59.5725C65.5399 59.6038 65.5556 59.635 65.5712 59.6663C65.6337 59.7913 65.7118 59.9006 65.7743 60.01C65.8055 60.0725 65.8367 60.1193 65.868 60.1818C65.9305 60.2912 66.0086 60.4005 66.0711 60.5099C66.1023 60.5724 66.1492 60.6348 66.1804 60.6817C66.2429 60.7911 66.321 60.8848 66.3835 60.9941C66.4148 61.0566 66.4616 61.1035 66.4929 61.166C66.6335 61.3691 66.7897 61.5878 66.9459 61.7909C66.9772 61.8377 67.0084 61.869 67.0396 61.9158C67.1021 62.0096 67.1802 62.0877 67.2427 62.1814C67.3052 62.2439 67.3521 62.322 67.4146 62.3845C67.4771 62.4626 67.5552 62.5563 67.6177 62.6344C67.6801 62.7126 67.7426 62.775 67.8051 62.8532C67.8676 62.9313 67.9457 63.0094 68.0082 63.0875C68.0707 63.1656 68.1488 63.2437 68.2269 63.3218C68.2894 63.3843 68.3519 63.4624 68.43 63.5249C68.5393 63.6343 68.6331 63.7436 68.7424 63.853C68.8205 63.9311 68.8987 64.0092 68.9768 64.0717C69.0705 64.1654 69.1798 64.2591 69.2736 64.3529C69.3361 64.4154 69.3986 64.4622 69.461 64.5247C69.5548 64.6028 69.6329 64.6809 69.7266 64.759C69.7891 64.8215 69.8516 64.8684 69.9297 64.9309C70.0234 65.009 70.1172 65.0871 70.2109 65.1652C70.2734 65.2121 70.3359 65.2746 70.3984 65.3214C70.5077 65.4152 70.6327 65.4933 70.742 65.587C70.7889 65.6182 70.8358 65.6651 70.8826 65.6964C71.0389 65.8213 71.2107 65.9307 71.3825 66.0557C71.4294 66.0869 71.4763 66.1181 71.5231 66.1494C71.6481 66.2275 71.7731 66.3212 71.8981 66.3993C71.9606 66.4462 72.023 66.4774 72.0855 66.5243C72.1949 66.6024 72.3199 66.6649 72.4292 66.743C72.4917 66.7743 72.5542 66.8211 72.6323 66.8524C72.7573 66.9305 72.8822 66.993 73.0072 67.0555C73.0697 67.0867 73.1166 67.1179 73.1791 67.1492C73.3665 67.2429 73.554 67.3367 73.7415 67.4304L77.0689 72.57L79.959 77.0066L80.3339 77.5847C80.7557 78.2408 81.4899 78.6313 82.271 78.6313C83.0521 78.6313 83.7864 78.2408 84.2082 77.5847L84.5831 77.0066L84.8018 76.663L87.4419 72.6013L90.8006 67.4304C90.9881 67.3367 91.1756 67.2429 91.363 67.1492C91.4255 67.1179 91.488 67.0867 91.5349 67.0555C91.6598 66.993 91.7848 66.9149 91.9098 66.8524C91.9723 66.8211 92.0504 66.7743 92.1129 66.7274C92.2222 66.6649 92.3472 66.5868 92.4566 66.5243C92.519 66.4774 92.5815 66.4462 92.6596 66.3993C92.7846 66.3212 92.894 66.2431 93.0189 66.165C93.0814 66.1338 93.1283 66.0869 93.1908 66.0557C93.3626 65.9463 93.5188 65.8213 93.6907 65.712C93.7376 65.6807 93.7688 65.6495 93.8157 65.6182C93.9406 65.5245 94.05 65.4308 94.175 65.337C94.2375 65.2902 94.2999 65.2277 94.3781 65.1808C94.4718 65.1027 94.5655 65.0246 94.6592 64.9465C94.7217 64.884 94.7998 64.8215 94.8623 64.7747C94.9404 64.6965 95.0342 64.6184 95.1123 64.5559C95.1748 64.4935 95.2529 64.431 95.3154 64.3685C95.3935 64.2904 95.4872 64.2123 95.5653 64.1342C95.6278 64.0717 95.7059 64.0092 95.7684 63.9467C95.8934 63.8217 96.034 63.6811 96.159 63.5561C96.2371 63.478 96.2996 63.3999 96.3777 63.3218C96.4401 63.2593 96.5026 63.1812 96.5651 63.1187C96.6432 63.0406 96.7213 62.9469 96.7838 62.8688C96.8463 62.8063 96.8932 62.7438 96.9401 62.6813C97.0182 62.5876 97.0963 62.4939 97.1744 62.4001C97.2212 62.3376 97.2681 62.2908 97.315 62.2283C97.3931 62.1345 97.4712 62.0252 97.5493 61.9315C97.5806 61.9002 97.6118 61.8534 97.643 61.8065C97.9242 61.4316 98.2054 61.041 98.4554 60.6348C98.471 60.6036 98.5022 60.5724 98.5179 60.5411C98.596 60.4161 98.6741 60.2912 98.7522 60.1662C98.7678 60.1349 98.7991 60.0881 98.8147 60.0568C98.8928 59.9319 98.9709 59.7913 99.049 59.6663C99.0646 59.635 99.0803 59.6194 99.0959 59.5882C99.4396 58.9789 99.752 58.3384 100.018 57.6979V57.6823C100.08 57.5261 100.143 57.3542 100.221 57.198C100.221 57.1824 100.236 57.1824 100.236 57.1668C100.627 56.1513 100.939 55.1047 101.142 54.0268C101.392 52.8082 101.517 51.5585 101.517 50.2775C101.486 39.6077 92.8783 31 82.3023 31ZM82.3023 60.6192C76.5534 60.6192 71.8824 55.9483 71.8824 50.1994C71.8824 44.4505 76.5534 39.7795 82.3023 39.7795C88.0512 39.7795 92.7221 44.4505 92.7221 50.1994C92.7221 55.9483 88.0512 60.6192 82.3023 60.6192Z" fill="white"></path> <path d="M108.219 55.6827L105.595 55.0422C105.032 57.7605 103.986 60.3693 102.501 62.7595C100.393 66.1494 97.4868 68.9458 94.0344 70.9141L90.5351 76.3193L98.7678 86.3799H109.984V57.9167C109.984 56.8544 109.266 55.9327 108.219 55.6827Z" fill="white"></path> <path d="M32.8588 49.5276C32.1715 49.3558 31.4372 49.512 30.8905 49.9494C30.3281 50.3868 30 51.0586 30 51.7615V74.0697H42.3101C42.935 74.0697 43.5286 74.3196 43.9504 74.7571L55.1201 86.1142V54.9797L32.8588 49.5276Z" fill="white"></path> <path d="M76.4909 80.0686L71.6012 72.5388H71.3044L59.7286 92.3943V108.969L79.9902 103.986V82.8181C78.5686 82.3182 77.3345 81.3652 76.4909 80.0686Z" fill="white"></path> <path d="M97.6743 90.9883C96.9869 90.9883 96.3308 90.6758 95.8934 90.1447L87.8949 80.381C87.067 81.5214 85.911 82.365 84.6143 82.8336V103.876L107.141 109.391C107.329 109.438 107.5 109.453 107.688 109.453C108.203 109.453 108.703 109.282 109.11 108.969C109.672 108.532 110 107.86 110 107.157V90.9883H97.6743Z" fill="white"></path> <path d="M41.3415 78.6938H30V101.002C30 102.064 30.7186 102.986 31.7653 103.236L55.1357 108.954V92.7067L41.3415 78.6938Z" fill="white"></path> </svg> 