<?xml version="1.0" encoding="UTF-8"?> <svg xmlns="http://www.w3.org/2000/svg" width="230" height="288" viewBox="0 0 230 288" fill="none"> <rect width="230" height="288" fill="#FF0000"></rect> <path d="M105.109 134.699C103.879 132.727 102.903 130.638 102.18 128.49V160.28L112.413 142.725C109.523 140.538 107.043 137.824 105.109 134.699Z" fill="white"></path> <path d="M130.378 95C117.138 95 106.379 105.76 106.379 118.999C106.379 120.854 106.593 122.67 107.004 124.428C107.004 124.467 107.023 124.506 107.023 124.545C107.062 124.74 107.121 124.936 107.16 125.111C107.179 125.15 107.179 125.189 107.199 125.228C107.414 126.049 107.687 126.869 107.999 127.669C108.019 127.708 108.019 127.748 108.038 127.767C108.117 127.943 108.175 128.119 108.253 128.294C108.273 128.353 108.292 128.392 108.312 128.45C108.39 128.626 108.468 128.782 108.527 128.958C108.546 128.997 108.566 129.036 108.585 129.095C108.839 129.642 109.112 130.188 109.405 130.716C109.425 130.755 109.444 130.794 109.464 130.833C109.542 130.989 109.64 131.126 109.718 131.262C109.757 131.341 109.796 131.399 109.835 131.477C109.913 131.614 110.011 131.751 110.089 131.887C110.128 131.965 110.186 132.044 110.226 132.102C110.304 132.239 110.401 132.356 110.479 132.493C110.518 132.571 110.577 132.629 110.616 132.707C110.792 132.961 110.987 133.235 111.182 133.489C111.221 133.547 111.26 133.586 111.3 133.645C111.378 133.762 111.475 133.86 111.553 133.977C111.632 134.055 111.69 134.153 111.768 134.231C111.846 134.328 111.944 134.445 112.022 134.543C112.1 134.641 112.178 134.719 112.256 134.816C112.335 134.914 112.432 135.012 112.51 135.109C112.588 135.207 112.686 135.305 112.784 135.402C112.862 135.48 112.94 135.578 113.037 135.656C113.174 135.793 113.291 135.93 113.428 136.066C113.526 136.164 113.623 136.261 113.721 136.34C113.838 136.457 113.975 136.574 114.092 136.691C114.17 136.769 114.248 136.828 114.326 136.906C114.443 137.004 114.541 137.101 114.658 137.199C114.736 137.277 114.814 137.335 114.912 137.414C115.029 137.511 115.146 137.609 115.264 137.707C115.342 137.765 115.42 137.843 115.498 137.902C115.635 138.019 115.791 138.117 115.928 138.234C115.986 138.273 116.045 138.331 116.103 138.37C116.299 138.527 116.513 138.663 116.728 138.82C116.787 138.859 116.845 138.898 116.904 138.937C117.06 139.034 117.216 139.152 117.373 139.249C117.451 139.308 117.529 139.347 117.607 139.405C117.744 139.503 117.9 139.581 118.037 139.679C118.115 139.718 118.193 139.776 118.29 139.815C118.447 139.913 118.603 139.991 118.759 140.069C118.837 140.108 118.896 140.147 118.974 140.186C119.208 140.304 119.442 140.421 119.677 140.538L123.836 146.963L127.449 152.508L127.917 153.231C128.445 154.051 129.362 154.539 130.339 154.539C131.315 154.539 132.233 154.051 132.76 153.231L133.229 152.508L133.502 152.079L136.802 147.002L141.001 140.538C141.235 140.421 141.469 140.304 141.704 140.186C141.782 140.147 141.86 140.108 141.919 140.069C142.075 139.991 142.231 139.894 142.387 139.815C142.465 139.776 142.563 139.718 142.641 139.659C142.778 139.581 142.934 139.484 143.071 139.405C143.149 139.347 143.227 139.308 143.325 139.249C143.481 139.152 143.617 139.054 143.774 138.956C143.852 138.917 143.91 138.859 143.988 138.82C144.203 138.683 144.399 138.527 144.613 138.39C144.672 138.351 144.711 138.312 144.77 138.273C144.926 138.156 145.062 138.038 145.219 137.921C145.297 137.863 145.375 137.785 145.473 137.726C145.59 137.628 145.707 137.531 145.824 137.433C145.902 137.355 146 137.277 146.078 137.218C146.176 137.121 146.293 137.023 146.39 136.945C146.468 136.867 146.566 136.789 146.644 136.711C146.742 136.613 146.859 136.515 146.957 136.418C147.035 136.34 147.132 136.261 147.211 136.183C147.367 136.027 147.542 135.851 147.699 135.695C147.796 135.598 147.874 135.5 147.972 135.402C148.05 135.324 148.128 135.227 148.206 135.148C148.304 135.051 148.402 134.934 148.48 134.836C148.558 134.758 148.616 134.68 148.675 134.602C148.773 134.484 148.87 134.367 148.968 134.25C149.027 134.172 149.085 134.113 149.144 134.035C149.241 133.918 149.339 133.781 149.437 133.664C149.476 133.625 149.515 133.567 149.554 133.508C149.905 133.039 150.257 132.551 150.569 132.044C150.589 132.004 150.628 131.965 150.647 131.926C150.745 131.77 150.843 131.614 150.94 131.458C150.96 131.419 150.999 131.36 151.018 131.321C151.116 131.165 151.214 130.989 151.311 130.833C151.331 130.794 151.35 130.774 151.37 130.735C151.799 129.974 152.19 129.173 152.522 128.372V128.353C152.6 128.158 152.678 127.943 152.776 127.748C152.776 127.728 152.795 127.728 152.795 127.708C153.284 126.439 153.674 125.131 153.928 123.783C154.24 122.26 154.397 120.698 154.397 119.097C154.358 105.76 143.598 95 130.378 95ZM130.378 132.024C123.192 132.024 117.353 126.185 117.353 118.999C117.353 111.813 123.192 105.974 130.378 105.974C137.564 105.974 143.403 111.813 143.403 118.999C143.403 126.185 137.564 132.024 130.378 132.024Z" fill="white"></path> <path d="M162.774 125.853L159.493 125.053C158.79 128.451 157.482 131.712 155.627 134.699C152.991 138.937 149.359 142.432 145.043 144.893L140.669 151.649L150.96 164.225H164.98V128.646C164.98 127.318 164.082 126.166 162.774 125.853Z" fill="white"></path> <path d="M68.5735 118.16C67.7143 117.945 66.7965 118.14 66.1131 118.687C65.4101 119.234 65 120.073 65 120.952V148.837H80.3876C81.1687 148.837 81.9108 149.15 82.438 149.696L96.4001 163.893V124.975L68.5735 118.16Z" fill="white"></path> <path d="M123.114 156.336L117.002 146.923H116.631L102.161 171.743V192.461L127.488 186.232V159.773C125.711 159.148 124.168 157.956 123.114 156.336Z" fill="white"></path> <path d="M149.593 169.985C148.734 169.985 147.913 169.595 147.367 168.931L137.369 156.726C136.334 158.152 134.889 159.206 133.268 159.792V186.096L161.426 192.989C161.661 193.047 161.876 193.067 162.11 193.067C162.754 193.067 163.379 192.852 163.887 192.461C164.59 191.915 165 191.075 165 190.196V169.985H149.593Z" fill="white"></path> <path d="M79.1769 154.617H65V182.502C65 183.83 65.8983 184.982 67.2066 185.295L96.4196 192.442V172.133L79.1769 154.617Z" fill="white"></path> </svg> 