<?xml version="1.0" encoding="UTF-8"?> <svg xmlns="http://www.w3.org/2000/svg" width="140" height="140" viewBox="0 0 140 140" fill="none"> <circle cx="70" cy="70" r="70" fill="#FF0505"></circle> <path d="M89.5156 79.75H109.516C108.672 76.875 106.875 71.5781 103.953 66.7188H81.7031L89.5156 79.75Z" fill="white"></path> <path d="M70.3281 77.5313L59.4844 62.0312H104.719C103.641 58.75 101.187 53.2187 95.9062 47.5937C88.3906 39.5937 77.4219 35 65.8281 35H64.5937C55.3594 35 46.6719 38.5938 40.125 45.125C33.5938 51.6563 30 60.3438 30 69.5781V71.1875C30 80.4219 33.5938 89.1094 40.125 95.6563C46.6563 102.188 55.3437 105.781 64.5937 105.781H107.766L110 84.4531H83.6406C78.3437 84.4531 73.375 81.8594 70.3281 77.5313ZM97.7656 91.9688H102.188V96.6875H97.7656V91.9688ZM87.4687 91.9688H91.8906V96.6875H87.4687V91.9688Z" fill="white"></path> <path d="M76.2187 66.7188H68.5156L74.1875 74.8281C76.3437 77.9063 79.875 79.75 83.6406 79.75H84.0312L76.2187 66.7188Z" fill="white"></path> </svg> 