<?xml version="1.0" encoding="UTF-8"?> <svg xmlns="http://www.w3.org/2000/svg" width="230" height="288" viewBox="0 0 230 288" fill="none"> <rect width="230" height="288" fill="#FF0000"></rect> <path d="M139.395 155.938H164.395C163.34 152.344 161.094 145.723 157.441 139.648H129.629L139.395 155.938Z" fill="white"></path> <path d="M115.41 153.164L101.855 133.789H158.398C157.051 129.688 153.984 122.773 147.383 115.742C137.988 105.742 124.277 100 109.785 100H108.242C96.6992 100 85.8398 104.492 77.6563 112.656C69.4922 120.82 65 131.68 65 143.223V145.234C65 156.777 69.4922 167.637 77.6563 175.82C85.8203 183.984 96.6797 188.477 108.242 188.477H162.207L165 161.816H132.051C125.43 161.816 119.219 158.574 115.41 153.164ZM149.707 171.211H155.234V177.109H149.707V171.211ZM136.836 171.211H142.363V177.109H136.836V171.211Z" fill="white"></path> <path d="M122.773 139.648H113.145L120.234 149.785C122.93 153.633 127.344 155.938 132.051 155.938H132.539L122.773 139.648Z" fill="white"></path> </svg> 