<?xml version="1.0" encoding="UTF-8"?> <svg xmlns="http://www.w3.org/2000/svg" width="140" height="140" viewBox="0 0 140 140" fill="none"> <circle cx="70" cy="70" r="70" fill="#FF0505"></circle> <path d="M102.641 35H67.4844C63.4219 35 60.125 38.2969 60.125 42.3594V59.6719C61.9844 60.5937 63.9844 61.5937 65.8594 62.5312L68.7188 56.7969C70.4531 53.3281 74.6875 51.9219 78.1563 53.6563C81.625 55.3906 83.0312 59.6094 81.2969 63.0938L76.1875 73.3125C76.3281 74.6719 76.2031 76.0313 75.8281 77.3438H79.2031L70.2969 101.813C69.7656 103.266 70.7969 104.953 72.5 104.953C73.4531 104.953 74.3594 104.359 74.7031 103.406L84.1875 77.3438H85.8281L95.4063 103.422C95.75 104.375 96.6563 104.953 97.6094 104.953C99.2031 104.953 100.375 103.359 99.8125 101.797L90.8281 77.3438H102.641C106.703 77.3438 110 74.0469 110 69.9844V42.3594C110 38.2969 106.703 35 102.641 35ZM97.6094 67.2969H87.0937C85.7969 67.2969 84.75 66.25 84.75 64.9531C84.75 63.6562 85.7969 62.6094 87.0937 62.6094H97.6094C98.9063 62.6094 99.9531 63.6562 99.9531 64.9531C99.9531 66.25 98.9063 67.2969 97.6094 67.2969ZM97.6094 58.5156H87.0937C85.7969 58.5156 84.75 57.4688 84.75 56.1719C84.75 54.875 85.7969 53.8281 87.0937 53.8281H97.6094C98.9063 53.8281 99.9531 54.875 99.9531 56.1719C99.9531 57.4688 98.9063 58.5156 97.6094 58.5156ZM97.6094 49.7344H72.5156C71.2188 49.7344 70.1719 48.6875 70.1719 47.3906C70.1719 46.0938 71.2188 45.0469 72.5156 45.0469H97.625C98.9219 45.0469 99.9687 46.0938 99.9687 47.3906C99.9687 48.6875 98.9063 49.7344 97.6094 49.7344Z" fill="white"></path> <path d="M71.2344 76.3438C71.6562 75.1094 71.6562 73.8125 71.2969 72.625L77.1094 61C77.6875 59.8438 77.2187 58.4375 76.0625 57.8594C74.9062 57.2813 73.5 57.75 72.9219 58.9063L67.9688 68.8125C65 67.3438 60.5 65.0938 56.875 63.2969C53.5 61.625 51.0937 60.1094 46.9844 60.1094H44.8906C48.0938 60.1094 50.9531 58.6407 52.8125 56.3282C54.2344 54.5782 55.0938 52.3438 55.0938 49.9063C55.0938 44.2657 50.5313 39.7032 44.8906 39.7032C39.25 39.6875 34.6875 44.25 34.6875 49.8907C34.6875 52.5938 35.75 55.0625 37.4687 56.8907C39.3281 58.875 41.9688 60.1094 44.9063 60.1094C40.9844 60.1094 37.1406 61.7032 34.375 64.4688C31.5469 67.2813 30 71.0157 30 75V82.5313C30 85.7813 32.1094 88.5313 35.0156 89.5157V102.609C35.0156 103.906 36.0625 104.953 37.3594 104.953H52.4219C53.7188 104.953 54.7656 103.906 54.7656 102.609V76.2813C56.9844 77.3907 59.9062 78.8438 62.2656 80.0313C63.9219 80.8594 65.8594 80.9375 67.5781 80.2344C69.2969 79.5313 70.625 78.1094 71.2187 76.3594C71.2344 76.3594 71.2344 76.3438 71.2344 76.3438Z" fill="white"></path> </svg> 