<?xml version="1.0" encoding="UTF-8"?> <svg xmlns="http://www.w3.org/2000/svg" width="230" height="288" viewBox="0 0 230 288" fill="none"> <rect width="230" height="288" fill="#FF0000"></rect> <path d="M155.801 100H111.855C106.777 100 102.656 104.121 102.656 109.199V130.84C104.98 131.992 107.48 133.242 109.824 134.414L113.398 127.246C115.566 122.91 120.859 121.152 125.195 123.32C129.531 125.488 131.289 130.762 129.121 135.117L122.734 147.891C122.91 149.59 122.754 151.289 122.285 152.93H126.504L115.371 183.516C114.707 185.332 115.996 187.441 118.125 187.441C119.316 187.441 120.449 186.699 120.879 185.508L132.734 152.93H134.785L146.758 185.527C147.188 186.719 148.32 187.441 149.512 187.441C151.504 187.441 152.969 185.449 152.266 183.496L141.035 152.93H155.801C160.879 152.93 165 148.809 165 143.73V109.199C165 104.121 160.879 100 155.801 100ZM149.512 140.371H136.367C134.746 140.371 133.437 139.062 133.437 137.441C133.437 135.82 134.746 134.512 136.367 134.512H149.512C151.133 134.512 152.441 135.82 152.441 137.441C152.441 139.062 151.133 140.371 149.512 140.371ZM149.512 129.395H136.367C134.746 129.395 133.437 128.086 133.437 126.465C133.437 124.844 134.746 123.535 136.367 123.535H149.512C151.133 123.535 152.441 124.844 152.441 126.465C152.441 128.086 151.133 129.395 149.512 129.395ZM149.512 118.418H118.145C116.523 118.418 115.215 117.109 115.215 115.488C115.215 113.867 116.523 112.559 118.145 112.559H149.531C151.152 112.559 152.461 113.867 152.461 115.488C152.461 117.109 151.133 118.418 149.512 118.418Z" fill="white"></path> <path d="M116.543 151.68C117.07 150.137 117.07 148.516 116.621 147.031L123.887 132.5C124.609 131.055 124.023 129.297 122.578 128.574C121.133 127.852 119.375 128.437 118.652 129.883L112.461 142.266C108.75 140.43 103.125 137.617 98.5938 135.371C94.375 133.281 91.3672 131.387 86.2305 131.387H83.6133C87.6172 131.387 91.1914 129.551 93.5156 126.66C95.293 124.473 96.3672 121.68 96.3672 118.633C96.3672 111.582 90.6641 105.879 83.6133 105.879C76.5625 105.859 70.8594 111.562 70.8594 118.613C70.8594 121.992 72.1875 125.078 74.3359 127.363C76.6602 129.844 79.9609 131.387 83.6328 131.387C78.7305 131.387 73.9258 133.379 70.4688 136.836C66.9336 140.352 65 145.02 65 150V159.414C65 163.477 67.6367 166.914 71.2695 168.145V184.512C71.2695 186.133 72.5781 187.441 74.1992 187.441H93.0273C94.6484 187.441 95.957 186.133 95.957 184.512V151.602C98.7305 152.988 102.383 154.805 105.332 156.289C107.402 157.324 109.824 157.422 111.973 156.543C114.121 155.664 115.781 153.887 116.523 151.699C116.543 151.699 116.543 151.68 116.543 151.68Z" fill="white"></path> </svg> 